<svg width="19" height="18" viewBox="0 0 19 18" fill="none" xmlns="http://www.w3.org/2000/svg">
<path d="M6.875 10.875H12.125M6.875 7.125H9.5" stroke="white" stroke-width="1.5" stroke-linecap="round" stroke-linejoin="round"/>
<path d="M11.128 15.6679C14.2652 15.4594 16.7642 12.9249 16.9698 9.74316C17.0101 9.12051 17.0101 8.47569 16.9698 7.85304C16.7642 4.67128 14.2652 2.13685 11.128 1.92831C10.0576 1.85716 8.94018 1.8573 7.87205 1.92831C4.73479 2.13685 2.23581 4.67128 2.03018 7.85304C1.98994 8.47569 1.98994 9.12051 2.03018 9.74316C2.10507 10.902 2.61757 11.975 3.22093 12.881C3.57126 13.5152 3.34006 14.3069 2.97516 14.9984C2.71206 15.4969 2.58051 15.7462 2.68613 15.9263C2.79176 16.1064 3.02769 16.1122 3.49957 16.1236C4.43275 16.1464 5.06201 15.8818 5.56151 15.5135C5.8448 15.3046 5.98645 15.2001 6.08408 15.1881C6.1817 15.1761 6.37383 15.2552 6.75801 15.4135C7.1033 15.5557 7.50422 15.6434 7.87205 15.6679C8.94018 15.7389 10.0576 15.739 11.128 15.6679Z" stroke="white" stroke-width="1.5" stroke-linejoin="round"/>
</svg>
