<svg width="112" height="30" viewBox="0 0 112 30" fill="none" xmlns="http://www.w3.org/2000/svg">
<path d="M1.496 23V7.38H6.292C8.03733 7.38 9.372 7.73933 10.296 8.458C11.2347 9.162 11.704 10.196 11.704 11.56C11.704 12.2053 11.5647 12.7773 11.286 13.276C11.022 13.7747 10.604 14.178 10.032 14.486C9.47467 14.794 8.756 14.9773 7.876 15.036V14.882C8.90267 14.9113 9.746 15.0947 10.406 15.432C11.0807 15.7547 11.572 16.202 11.88 16.774C12.2027 17.3313 12.364 17.984 12.364 18.732C12.364 20.14 11.88 21.2033 10.912 21.922C9.95867 22.6407 8.58 23 6.776 23H1.496ZM4.642 20.228L6.798 20.206C7.57533 20.206 8.162 20.0447 8.558 19.722C8.954 19.3993 9.152 18.952 9.152 18.38C9.152 17.764 8.94667 17.2873 8.536 16.95C8.14 16.598 7.56067 16.422 6.798 16.422H4.642V20.228ZM4.642 13.738H6.292C7.02533 13.738 7.57533 13.584 7.942 13.276C8.30867 12.9533 8.492 12.506 8.492 11.934C8.492 11.362 8.30867 10.922 7.942 10.614C7.57533 10.306 7.02533 10.152 6.292 10.152H4.642V13.738ZM17.7234 23V11.12C17.7234 10.6653 17.6061 10.328 17.3714 10.108C17.1367 9.87333 16.7994 9.756 16.3594 9.756H13.8074V7.38H16.8874C18.1634 7.38 19.1167 7.70267 19.7474 8.348C20.3927 8.97867 20.7154 9.92467 20.7154 11.186V23H17.7234ZM13.3674 23V20.624H24.4554V23H13.3674ZM31.2228 23.264C30.1081 23.264 29.1328 23.0147 28.2968 22.516C27.4608 22.0027 26.8081 21.284 26.3388 20.36C25.8695 19.436 25.6348 18.3507 25.6348 17.104C25.6348 15.8427 25.8695 14.7573 26.3388 13.848C26.8081 12.924 27.4608 12.2127 28.2968 11.714C29.1328 11.2007 30.1081 10.944 31.2228 10.944C32.3375 10.944 33.3128 11.2007 34.1488 11.714C34.9848 12.2127 35.6375 12.924 36.1068 13.848C36.5761 14.7573 36.8108 15.8427 36.8108 17.104C36.8108 18.3507 36.5761 19.436 36.1068 20.36C35.6375 21.284 34.9848 22.0027 34.1488 22.516C33.3128 23.0147 32.3375 23.264 31.2228 23.264ZM31.2228 20.624C32.0148 20.624 32.6235 20.3233 33.0488 19.722C33.4888 19.106 33.7088 18.2333 33.7088 17.104C33.7088 15.96 33.4888 15.0873 33.0488 14.486C32.6235 13.8847 32.0148 13.584 31.2228 13.584C30.4308 13.584 29.8148 13.8847 29.3748 14.486C28.9495 15.0873 28.7368 15.96 28.7368 17.104C28.7368 18.2333 28.9495 19.106 29.3748 19.722C29.8148 20.3233 30.4308 20.624 31.2228 20.624ZM43.7322 23.264C42.6176 23.264 41.6276 23.0073 40.7622 22.494C39.9116 21.9807 39.2442 21.262 38.7602 20.338C38.2909 19.3993 38.0562 18.3213 38.0562 17.104C38.0562 15.8867 38.2909 14.816 38.7602 13.892C39.2442 12.968 39.9116 12.2493 40.7622 11.736C41.6276 11.208 42.6176 10.944 43.7322 10.944C44.6562 10.944 45.4996 11.1273 46.2622 11.494C47.0249 11.8607 47.6482 12.3813 48.1322 13.056C48.6309 13.7307 48.9462 14.5373 49.0782 15.476L46.1082 15.63C45.9616 14.97 45.6829 14.464 45.2722 14.112C44.8616 13.76 44.3556 13.584 43.7542 13.584C42.9476 13.584 42.3096 13.8993 41.8402 14.53C41.3856 15.146 41.1582 16.004 41.1582 17.104C41.1582 18.204 41.3856 19.0693 41.8402 19.7C42.3096 20.316 42.9476 20.624 43.7542 20.624C44.3702 20.624 44.8836 20.4407 45.2942 20.074C45.7196 19.7073 45.9982 19.172 46.1302 18.468L49.1002 18.622C48.9829 19.546 48.6749 20.36 48.1762 21.064C47.6776 21.7533 47.0469 22.296 46.2842 22.692C45.5216 23.0733 44.6709 23.264 43.7322 23.264ZM50.5656 23V7.38H53.5576V16.356L58.0456 11.208H61.5876L57.0996 16.246L61.7856 23H58.3756L55.1416 18.182L53.5576 19.92V23H50.5656ZM66.595 23V10.196H62.437V7.38H73.877V10.196H69.719V23H66.595ZM78.7964 23.264C78.0778 23.264 77.4178 23.132 76.8164 22.868C76.2151 22.604 75.7384 22.2227 75.3864 21.724C75.0491 21.2253 74.8804 20.6313 74.8804 19.942C74.8804 18.9447 75.1958 18.1673 75.8264 17.61C76.4718 17.0527 77.3518 16.6567 78.4664 16.422L82.0084 15.652C82.0084 14.904 81.8544 14.332 81.5464 13.936C81.2531 13.54 80.7691 13.342 80.0944 13.342C79.5078 13.342 79.0531 13.4887 78.7304 13.782C78.4078 14.0753 78.1951 14.464 78.0924 14.948L75.0124 14.772C75.2324 13.6133 75.7824 12.6893 76.6624 12C77.5571 11.296 78.6864 10.944 80.0504 10.944C81.7518 10.944 82.9984 11.3767 83.7904 12.242C84.5971 13.0927 85.0004 14.288 85.0004 15.828V19.986C85.0004 20.2793 85.0518 20.4847 85.1544 20.602C85.2571 20.7047 85.4111 20.756 85.6164 20.756H86.1004V23C86.0124 23.0147 85.8658 23.0293 85.6604 23.044C85.4551 23.0733 85.2424 23.088 85.0224 23.088C84.4358 23.088 83.9371 22.9853 83.5264 22.78C83.1158 22.5747 82.8004 22.274 82.5804 21.878C82.3751 21.482 82.2578 21.0053 82.2284 20.448H82.5584C82.4851 20.976 82.2871 21.46 81.9644 21.9C81.6418 22.3253 81.2091 22.6627 80.6664 22.912C80.1238 23.1467 79.5004 23.264 78.7964 23.264ZM79.4124 21.02C79.9698 21.02 80.4391 20.9247 80.8204 20.734C81.2018 20.5287 81.4951 20.2353 81.7004 19.854C81.9058 19.458 82.0084 18.996 82.0084 18.468V17.764L79.3904 18.336C78.8624 18.4533 78.4884 18.622 78.2684 18.842C78.0484 19.062 77.9384 19.3773 77.9384 19.788C77.9384 20.1693 78.0631 20.47 78.3124 20.69C78.5618 20.91 78.9284 21.02 79.4124 21.02ZM91.5918 23V11.12C91.5918 10.6653 91.4745 10.328 91.2398 10.108C91.0052 9.87333 90.6678 9.756 90.2278 9.756H87.6758V7.38H90.7558C92.0318 7.38 92.9852 7.70267 93.6158 8.348C94.2612 8.97867 94.5838 9.92467 94.5838 11.186V23H91.5918ZM87.2358 23V20.624H98.3238V23H87.2358ZM99.8112 23V7.38H102.803V16.356L107.291 11.208H110.833L106.345 16.246L111.031 23H107.621L104.387 18.182L102.803 19.92V23H99.8112Z" fill="white"/>
</svg>
